PathFileType	4	(X/Y/Z)	./resultDataOpenSim/trcMotMarkerGrf/sub10/qtm-13-07.trc
DataRate	CameraRate	NumFrames	NumMarkers	Units	OrigDataRate	OrigDataStartFrame	OrigNumFrames
250.000000	250.000000	4	24	m	250.000000	124	494
Frame#	Time	L.Toe.Tip			R.Toe.Tip			L.Ankle.Lat			R.Ankle.Lat			L.Ankle.Med			R.Ankle.Med			L.Heel			R.Heel			L.Knee.Lat			R.Knee.Lat			L.Knee.Med			R.Knee.Med			L.Thigh.Upper			R.Thigh.Upper			L.ASIS			R.ASIS			V.Sacral			L.Acromium			R.Acromium			C7			L.Elbow			R.Elbow			L.Wrist.Lat			R.Wrist.Lat
		X1	Y1	Z1	X2	Y2	Z2	X3	Y3	Z3	X4	Y4	Z4	X5	Y5	Z5	X6	Y6	Z6	X7	Y7	Z7	X8	Y8	Z8	X9	Y9	Z9	X10	Y10	Z10	X11	Y11	Z11	X12	Y12	Z12	X13	Y13	Z13	X14	Y14	Z14	X15	Y15	Z15	X16	Y16	Z16	X17	Y17	Z17	X18	Y18	Z18	X19	Y19	Z19	X20	Y20	Z20	X21	Y21	Z21	X22	Y22	Z22	X23	Y23	Z23	X24	Y24	Z24

124	0.492	-0.36801603	0.069475842	-0.089139191	-0.76670103	0.039838811	0.023614886	-0.50503065	0.073532338	-0.098522245	-0.90848655	0.051143556	0.060158248	-0.48644873	0.10051058	-0.018045854	-0.88903435	0.08410547	-0.02075148	-0.55768614	0.036337758	-0.043247741	-0.95788681	0.029511254	0.0088939776	-0.53026115	0.4653297	-0.12628864	-0.80694518	0.44291576	0.13250983	-0.50503263	0.44548143	-0.0067924055	-0.79993265	0.45078361	-0.0011703874	-0.67711505	0.81842038	-0.17776789	-0.74722677	0.85356251	0.20132968	-0.6386886	0.93131819	-0.10786143	-0.66192239	0.93951606	0.1373627	-0.84939442	0.94765074	-0.011737937	-0.72140097	1.4030011	-0.15336278	-0.72511744	1.4007517	0.17539404	-0.81416584	1.4292396	0.0061744592	-0.82504697	1.0699725	-0.19049062	-0.73543061	1.0428418	0.23006083	-0.70181813	0.85959443	-0.21386751	-0.53436284	0.895893	0.21687229
125	0.496	-0.35026295	0.072508049	-0.087328522	-0.76667528	0.039752321	0.023610272	-0.48731413	0.072688774	-0.097309273	-0.90844851	0.051149405	0.060034668	-0.46983684	0.10052317	-0.01681895	-0.88884133	0.084021698	-0.020921631	-0.53904257	0.034290354	-0.042435687	-0.95789645	0.029585451	0.0088117542	-0.52423231	0.46355636	-0.12616231	-0.80349915	0.44199447	0.13171691	-0.49962199	0.44392144	-0.0066456622	-0.79678153	0.45010491	-0.001414918	-0.67071718	0.81731131	-0.17763612	-0.74376929	0.85307376	0.20155661	-0.63268203	0.93015569	-0.10765608	-0.65726639	0.9384345	0.13755499	-0.84385082	0.94663037	-0.01262198	-0.71595926	1.4018065	-0.15308446	-0.7199398	1.3997892	0.17563875	-0.80879734	1.428111	0.0064061016	-0.82094751	1.0690988	-0.19070807	-0.72842425	1.0417085	0.23056495	-0.69802077	0.85854899	-0.21413661	-0.52558722	0.89711769	0.21584868
126	0.5	-0.33281284	0.075757156	-0.085317252	-0.76662444	0.039706879	0.023623146	-0.46983658	0.07217284	-0.096112013	-0.90825163	0.05117662	0.059921929	-0.4534649	0.10069163	-0.015648751	-0.88862176	0.083925435	-0.021102843	-0.5203919	0.032378714	-0.041799144	-0.95789728	0.029673714	0.0087368189	-0.51816084	0.46171536	-0.12601967	-0.80004867	0.44107198	0.13090485	-0.49424474	0.44225545	-0.0064967242	-0.79347254	0.44934807	-0.0016576612	-0.66439387	0.81611035	-0.17750097	-0.73969739	0.85237664	0.20120702	-0.62640334	0.92893799	-0.10736959	-0.65257527	0.93732492	0.13773256	-0.83799416	0.94556312	-0.013402018	-0.71051977	1.4005512	-0.15279126	-0.71477969	1.3987682	0.17588872	-0.80342059	1.4269249	0.0066200382	-0.81684418	1.0681856	-0.19095429	-0.72146412	1.0404695	0.23117366	-0.69426912	0.85743113	-0.21439673	-0.5168678	0.89829641	0.21481975
127	0.504	-0.31570848	0.0791764	-0.08312981	-0.76656023	0.039670457	0.023661103	-0.45264482	0.071948911	-0.094961651	-0.90790003	0.051299362	0.059827568	-0.43737419	0.10103865	-0.01455517	-0.88837603	0.083818277	-0.021284707	-0.50192992	0.030751457	-0.041250227	-0.95788871	0.029777574	0.0086663078	-0.51206534	0.45984378	-0.12588121	-0.79651049	0.44012091	0.1300577	-0.48888921	0.44049751	-0.0063111609	-0.79013514	0.44851898	-0.0019604814	-0.65805634	0.81483181	-0.17738353	-0.7352341	0.85149902	0.2005348	-0.6198	0.92765259	-0.10697332	-0.64786344	0.93618817	0.1379086	-0.83187518	0.94443463	-0.014141244	-0.70508396	1.3992412	-0.1524885	-0.70962393	1.3976813	0.17613821	-0.79804584	1.4256857	0.0068110753	-0.81263696	1.0672399	-0.19112948	-0.71457999	1.0390948	0.23195159	-0.69051895	0.85623699	-0.21463623	-0.50821272	0.89942484	0.21379653
